<?xml version="1.0" encoding="UTF-8"?>
<!DOCTYPE svg PUBLIC "-//W3C//DTD SVG 1.1//EN" "http://www.w3.org/Graphics/SVG/1.1/DTD/svg11.dtd">
<svg xmlns="http://www.w3.org/2000/svg" version="1.1" width="793px" height="227px" style="shape-rendering:geometricPrecision; text-rendering:geometricPrecision; image-rendering:optimizeQuality; fill-rule:evenodd; clip-rule:evenodd" xmlns:xlink="http://www.w3.org/1999/xlink">
<g><path style="opacity:0.925" fill="#fefefe" d="M 354.5,49.5 C 356.017,49.5106 357.184,50.1772 358,51.5C 358.333,90.5 358.667,129.5 359,168.5C 359.229,171.458 360.396,173.958 362.5,176C 361.663,177.011 361.33,178.178 361.5,179.5C 355.158,179.666 348.825,179.5 342.5,179C 341.291,175.975 341.791,173.141 344,170.5C 344.667,136.167 344.667,101.833 344,67.5C 343.995,64.7708 342.829,62.7708 340.5,61.5C 339.534,59.604 339.201,57.604 339.5,55.5C 344.883,54.2656 349.883,52.2656 354.5,49.5 Z"/></g>
<g><path style="opacity:0.9" fill="#fefefe" d="M 439.5,49.5 C 441.017,49.5106 442.184,50.1772 443,51.5C 443.333,71.8333 443.667,92.1667 444,112.5C 450.708,101.646 460.374,95.3131 473,93.5C 485.614,95.7915 492.28,103.458 493,116.5C 493.333,133.833 493.667,151.167 494,168.5C 494.55,171.263 495.383,173.93 496.5,176.5C 496.32,177.554 495.987,178.554 495.5,179.5C 492.5,179.833 489.5,180.167 486.5,180.5C 477.227,182.329 474.727,179.329 479,171.5C 479.667,153.833 479.667,136.167 479,118.5C 477.436,105.136 470.602,101.303 458.5,107C 450.441,113.942 445.608,122.775 444,133.5C 443.333,145.833 443.333,158.167 444,170.5C 444.635,172.618 445.469,174.618 446.5,176.5C 446.32,177.554 445.987,178.554 445.5,179.5C 439.528,180.664 433.528,180.83 427.5,180C 426.833,178.667 426.167,177.333 425.5,176C 427.317,174.2 428.484,172.034 429,169.5C 429.667,154.833 429.667,140.167 429,125.5C 427.701,126.98 426.034,127.646 424,127.5C 412.775,126.365 401.609,126.865 390.5,129C 378.563,130.922 373.73,137.756 376,149.5C 383.462,165.98 395.962,171.813 413.5,167C 418.054,163.774 421.054,159.44 422.5,154C 425.278,153.077 427.278,153.911 428.5,156.5C 421.404,176.542 407.404,185.042 386.5,182C 370.823,175.834 361.989,164.334 360,147.5C 357.19,128.59 362.69,112.757 376.5,100C 388.025,93.2257 400.025,92.2257 412.5,97C 421.831,101.668 427.331,109.168 429,119.5C 429.667,102.167 429.667,84.8333 429,67.5C 428.588,65.0031 427.422,63.0031 425.5,61.5C 424.534,59.604 424.201,57.604 424.5,55.5C 429.723,53.8742 434.723,51.8742 439.5,49.5 Z M 389.5,100.5 C 404.277,99.1127 411.443,105.779 411,120.5C 398.939,120.313 387.439,122.813 376.5,128C 374.291,129.873 372.458,132.04 371,134.5C 368.097,117.957 374.264,106.623 389.5,100.5 Z"/></g>
<g><path style="opacity:0.91" fill="#fefefe" d="M 639.5,49.5 C 641.017,49.5106 642.184,50.1772 643,51.5C 643.333,65.1667 643.667,78.8333 644,92.5C 649.07,87.3422 653.403,81.6755 657,75.5C 657.873,75.7355 658.707,76.0688 659.5,76.5C 660.496,82.4632 660.829,88.4632 660.5,94.5C 662.857,94.3367 665.19,94.5034 667.5,95C 669.037,96.1096 669.703,97.6096 669.5,99.5C 666.545,100.159 663.545,100.492 660.5,100.5C 660.333,120.503 660.5,140.503 661,160.5C 662.289,171.651 667.289,173.984 676,167.5C 679.148,163.371 681.648,158.871 683.5,154C 682.671,126.905 682.171,99.7387 682,72.5C 682.208,68.2092 680.875,64.5425 678,61.5C 677.192,59.4213 677.359,57.4213 678.5,55.5C 683.374,53.5976 688.207,51.5976 693,49.5C 694.261,49.7591 695.261,50.4258 696,51.5C 696.333,71.8333 696.667,92.1667 697,112.5C 703.411,101.597 712.911,95.264 725.5,93.5C 736.284,94.7817 742.784,100.782 745,111.5C 746.194,130.808 746.861,150.142 747,169.5C 747.306,171.906 748.139,174.073 749.5,176C 749.265,176.873 748.931,177.707 748.5,178.5C 742.278,179.809 736.111,179.809 730,178.5C 729.726,175.351 730.392,172.351 732,169.5C 732.667,153.5 732.667,137.5 732,121.5C 730.744,104.541 722.911,100.375 708.5,109C 704.202,113.097 701.035,117.931 699,123.5C 695.098,139.347 694.432,155.347 697,171.5C 699.289,173.516 699.789,175.849 698.5,178.5C 692.202,179.496 685.868,179.83 679.5,179.5C 679.509,177.692 679.009,176.025 678,174.5C 671.016,180.912 663.183,182.412 654.5,179C 652.291,177.127 650.458,174.96 649,172.5C 647.53,148.899 647.03,125.232 647.5,101.5C 646.167,101.5 644.833,101.5 643.5,101.5C 643.333,123.836 643.5,146.169 644,168.5C 644.229,171.458 645.396,173.958 647.5,176C 646.663,177.011 646.33,178.178 646.5,179.5C 639.91,179.811 633.41,179.478 627,178.5C 623.491,180.726 619.658,182.059 615.5,182.5C 610.013,180.666 604.513,178.999 599,177.5C 592.943,179.462 586.776,181.128 580.5,182.5C 568.12,181.62 561.62,174.953 561,162.5C 549.747,182.917 533.581,188.084 512.5,178C 500.001,168.543 494.001,155.876 494.5,140C 493.711,121.283 501.044,106.949 516.5,97C 532.829,90.8065 546.995,93.9732 559,106.5C 562.71,112.342 564.377,118.675 564,125.5C 562.701,126.98 561.034,127.646 559,127.5C 545.595,126.048 532.428,127.214 519.5,131C 511.495,134.649 508.661,140.816 511,149.5C 519.117,166.973 532.283,172.473 550.5,166C 553.933,162.896 556.1,159.063 557,154.5C 558.734,153.751 560.567,153.251 562.5,153C 565.416,148.08 569.082,143.747 573.5,140C 584.867,134.21 596.034,128.043 607,121.5C 609.885,103.395 602.385,96.8951 584.5,102C 582.376,103.122 580.543,104.622 579,106.5C 578.667,110.5 578.333,114.5 578,118.5C 573.667,125.167 569.333,125.167 565,118.5C 564.108,107.026 569.275,99.526 580.5,96C 592.194,92.6692 603.527,93.6692 614.5,99C 619.904,103.534 622.404,109.367 622,116.5C 622.333,133.833 622.667,151.167 623,168.5C 623.949,171.2 625.783,172.033 628.5,171C 629.662,136.571 629.829,102.071 629,67.5C 628.995,64.7708 627.829,62.7708 625.5,61.5C 624.534,59.604 624.201,57.604 624.5,55.5C 629.883,54.2656 634.883,52.2656 639.5,49.5 Z M 524.5,100.5 C 539.277,99.1127 546.443,105.779 546,120.5C 533.939,120.313 522.439,122.813 511.5,128C 509.291,129.873 507.458,132.04 506,134.5C 503.097,117.957 509.264,106.623 524.5,100.5 Z M 607.5,129.5 C 608.496,143.657 608.829,157.99 608.5,172.5C 605.303,172.027 602.137,171.361 599,170.5C 585.932,175.717 577.765,171.55 574.5,158C 575.441,151.788 578.441,146.788 583.5,143C 591.401,138.219 599.401,133.719 607.5,129.5 Z"/></g>
<g><path style="opacity:0.008" fill="#fcfcfc" d="M 69.5,51.5 C 100.5,51.5 131.5,51.5 162.5,51.5C 162.5,52.8333 162.5,54.1667 162.5,55.5C 166.5,55.5 170.5,55.5 174.5,55.5C 174.5,56.8333 174.5,58.1667 174.5,59.5C 177.95,58.7564 179.616,60.0897 179.5,63.5C 182.5,63.1667 183.833,64.5 183.5,67.5C 186.91,67.3838 188.244,69.0504 187.5,72.5C 188.833,72.5 190.167,72.5 191.5,72.5C 191.5,76.5 191.5,80.5 191.5,84.5C 192.833,84.5 194.167,84.5 195.5,84.5C 195.5,115.5 195.5,146.5 195.5,177.5C 194.167,177.5 192.833,177.5 191.5,177.5C 191.5,181.5 191.5,185.5 191.5,189.5C 190.167,189.5 188.833,189.5 187.5,189.5C 188.244,192.95 186.91,194.616 183.5,194.5C 183.833,197.5 182.5,198.833 179.5,198.5C 179.616,201.91 177.95,203.244 174.5,202.5C 174.5,203.833 174.5,205.167 174.5,206.5C 170.5,206.5 166.5,206.5 162.5,206.5C 162.5,207.833 162.5,209.167 162.5,210.5C 131.5,210.5 100.5,210.5 69.5,210.5C 69.5,209.167 69.5,207.833 69.5,206.5C 65.5,206.5 61.5,206.5 57.5,206.5C 57.5,205.167 57.5,203.833 57.5,202.5C 54.0504,203.244 52.3838,201.91 52.5,198.5C 49.5,198.833 48.1667,197.5 48.5,194.5C 45.0897,194.616 43.7564,192.95 44.5,189.5C 43.1667,189.5 41.8333,189.5 40.5,189.5C 40.5,185.5 40.5,181.5 40.5,177.5C 39.1667,177.5 37.8333,177.5 36.5,177.5C 36.5,146.5 36.5,115.5 36.5,84.5C 37.8333,84.5 39.1667,84.5 40.5,84.5C 40.5,80.5 40.5,76.5 40.5,72.5C 41.8333,72.5 43.1667,72.5 44.5,72.5C 43.7564,69.0504 45.0897,67.3838 48.5,67.5C 48.1667,64.5 49.5,63.1667 52.5,63.5C 52.3838,60.0897 54.0504,58.7564 57.5,59.5C 57.5,58.1667 57.5,56.8333 57.5,55.5C 61.5,55.5 65.5,55.5 69.5,55.5C 69.5,54.1667 69.5,52.8333 69.5,51.5 Z"/></g>
<g><path style="opacity:0.889" fill="#fefefe" d="M 194.5,57.5 C 228.167,57.5 261.833,57.5 295.5,57.5C 295.5,62.8333 295.5,68.1667 295.5,73.5C 294.07,73.4208 292.736,73.7542 291.5,74.5C 288.508,70.0029 284.508,66.8363 279.5,65C 270.506,64.5002 261.506,64.3336 252.5,64.5C 252.333,99.5016 252.5,134.502 253,169.5C 259.799,180.388 256.799,184.388 244,181.5C 240.167,181.167 236.333,180.833 232.5,180.5C 232.069,179.707 231.735,178.873 231.5,178C 233.677,174.811 235.177,171.311 236,167.5C 236.5,133.168 236.667,98.835 236.5,64.5C 227.494,64.3336 218.494,64.5002 209.5,65C 204.492,66.8363 200.492,70.0029 197.5,74.5C 196.252,73.9598 195.085,73.2931 194,72.5C 193.749,67.4993 193.916,62.4993 194.5,57.5 Z"/></g>
<g><path style="opacity:0.635" fill="#c3c3c4" d="M 170.5,63.5 C 169.081,64.4511 167.415,64.7845 165.5,64.5C 165.5,63.1667 165.5,61.8333 165.5,60.5C 132.5,60.5 99.5,60.5 66.5,60.5C 66.5,61.8333 66.5,63.1667 66.5,64.5C 64.5853,64.7845 62.9187,64.4511 61.5,63.5C 62.8333,63.5 64.1667,63.5 65.5,63.5C 65.5,62.1667 65.5,60.8333 65.5,59.5C 99.1667,59.5 132.833,59.5 166.5,59.5C 166.5,60.8333 166.5,62.1667 166.5,63.5C 167.833,63.5 169.167,63.5 170.5,63.5 Z"/></g>
<g><path style="opacity:1" fill="#fafafb" d="M 165.5,64.5 C 165.5,65.8333 165.5,67.1667 165.5,68.5C 167.167,68.5 168.833,68.5 170.5,68.5C 170.5,69.8333 170.5,71.1667 170.5,72.5C 171.833,72.5 173.167,72.5 174.5,72.5C 174.5,75.1667 174.5,77.8333 174.5,80.5C 135.5,80.5 96.5,80.5 57.5,80.5C 57.5,77.8333 57.5,75.1667 57.5,72.5C 58.8333,72.5 60.1667,72.5 61.5,72.5C 61.5,71.1667 61.5,69.8333 61.5,68.5C 63.1667,68.5 64.8333,68.5 66.5,68.5C 66.5,67.1667 66.5,65.8333 66.5,64.5C 66.5,63.1667 66.5,61.8333 66.5,60.5C 99.5,60.5 132.5,60.5 165.5,60.5C 165.5,61.8333 165.5,63.1667 165.5,64.5 Z"/></g>
<g><path style="opacity:1" fill="#f3f4f6" d="M 61.5,63.5 C 62.9187,64.4511 64.5853,64.7845 66.5,64.5C 66.5,65.8333 66.5,67.1667 66.5,68.5C 64.8333,68.5 63.1667,68.5 61.5,68.5C 61.5,69.8333 61.5,71.1667 61.5,72.5C 60.1667,72.5 58.8333,72.5 57.5,72.5C 57.5,75.1667 57.5,77.8333 57.5,80.5C 96.5,80.5 135.5,80.5 174.5,80.5C 174.5,77.8333 174.5,75.1667 174.5,72.5C 173.167,72.5 171.833,72.5 170.5,72.5C 170.5,71.1667 170.5,69.8333 170.5,68.5C 168.833,68.5 167.167,68.5 165.5,68.5C 165.5,67.1667 165.5,65.8333 165.5,64.5C 167.415,64.7845 169.081,64.4511 170.5,63.5C 173.95,62.7564 175.616,64.0897 175.5,67.5C 176.822,67.33 177.989,67.6634 179,68.5C 179.497,71.146 179.664,73.8127 179.5,76.5C 180.833,76.5 182.167,76.5 183.5,76.5C 183.5,77.8333 183.5,79.1667 183.5,80.5C 182.515,84.6344 182.182,88.9677 182.5,93.5C 181.5,93.5 180.5,93.5 179.5,93.5C 179.093,99.1613 178.76,104.828 178.5,110.5C 174.5,110.5 170.5,110.5 166.5,110.5C 166.5,106.167 166.5,101.833 166.5,97.5C 165.167,97.5 163.833,97.5 162.5,97.5C 162.768,95.901 162.434,94.5676 161.5,93.5C 161.5,91.8333 161.5,90.1667 161.5,88.5C 160.167,88.5 158.833,88.5 157.5,88.5C 157.5,87.1667 157.5,85.8333 157.5,84.5C 156.167,84.5 154.833,84.5 153.5,84.5C 145.167,84.5 136.833,84.5 128.5,84.5C 128.5,86.1667 128.5,87.8333 128.5,89.5C 127.167,89.5 125.833,89.5 124.5,89.5C 123.167,89.5 121.833,89.5 120.5,89.5C 120.5,90.8333 120.5,92.1667 120.5,93.5C 117.5,93.5 114.5,93.5 111.5,93.5C 111.5,92.1667 111.5,90.8333 111.5,89.5C 110.167,89.5 108.833,89.5 107.5,89.5C 106.167,89.5 104.833,89.5 103.5,89.5C 103.5,87.8333 103.5,86.1667 103.5,84.5C 95.1667,84.5 86.8333,84.5 78.5,84.5C 77.1667,84.5 75.8333,84.5 74.5,84.5C 74.5,86.1667 74.5,87.8333 74.5,89.5C 73.1667,89.5 71.8333,89.5 70.5,89.5C 70.5,90.8333 70.5,92.1667 70.5,93.5C 69.5655,94.5676 69.2322,95.901 69.5,97.5C 68.1667,97.5 66.8333,97.5 65.5,97.5C 65.5,98.8333 65.5,100.167 65.5,101.5C 65.5,104.5 65.5,107.5 65.5,110.5C 61.5,110.5 57.5,110.5 53.5,110.5C 53.2401,104.828 52.9068,99.1613 52.5,93.5C 51.5,93.5 50.5,93.5 49.5,93.5C 49.8182,88.9677 49.4849,84.6344 48.5,80.5C 48.5,79.1667 48.5,77.8333 48.5,76.5C 49.8333,76.5 51.1667,76.5 52.5,76.5C 52.3359,73.8127 52.5026,71.146 53,68.5C 54.0113,67.6634 55.1779,67.33 56.5,67.5C 56.3838,64.0897 58.0504,62.7564 61.5,63.5 Z"/></g>
<g><path style="opacity:0.886" fill="#fefefe" d="M 309.5,93.5 C 328.835,93.8379 340.168,103.505 343.5,122.5C 343.61,124.374 342.944,125.874 341.5,127C 330.831,126.255 320.165,126.588 309.5,128C 302.309,128.725 296.142,131.558 291,136.5C 288.008,150.682 293.175,160.849 306.5,167C 312.415,168.527 318.415,168.861 324.5,168C 331.051,165.59 335.051,160.923 336.5,154C 339.278,153.077 341.278,153.911 342.5,156.5C 334.856,178.32 319.856,186.487 297.5,181C 280.808,172.596 272.808,158.93 273.5,140C 272.918,122.35 279.585,108.35 293.5,98C 298.705,95.5362 304.038,94.0362 309.5,93.5 Z M 303.5,100.5 C 318.277,99.1127 325.443,105.779 325,120.5C 312.939,120.313 301.439,122.813 290.5,128C 288.291,129.873 286.458,132.04 285,134.5C 282.097,117.957 288.264,106.623 303.5,100.5 Z"/></g>
<g><path style="opacity:0.043" fill="#f2f2f3" d="M 48.5,80.5 C 48.5,112.833 48.5,145.167 48.5,177.5C 49.8333,177.5 51.1667,177.5 52.5,177.5C 52.5,178.833 52.5,180.167 52.5,181.5C 54.1667,181.5 55.8333,181.5 57.5,181.5C 57.5,182.833 57.5,184.167 57.5,185.5C 58.8333,185.5 60.1667,185.5 61.5,185.5C 61.5,187.167 61.5,188.833 61.5,190.5C 62.8333,190.5 64.1667,190.5 65.5,190.5C 65.2322,192.099 65.5655,193.432 66.5,194.5C 66.5,195.5 66.5,196.5 66.5,197.5C 99.5,197.5 132.5,197.5 165.5,197.5C 165.5,196.5 165.5,195.5 165.5,194.5C 166.434,193.432 166.768,192.099 166.5,190.5C 167.833,190.5 169.167,190.5 170.5,190.5C 170.5,188.833 170.5,187.167 170.5,185.5C 171.833,185.5 173.167,185.5 174.5,185.5C 174.5,184.167 174.5,182.833 174.5,181.5C 176.167,181.5 177.833,181.5 179.5,181.5C 179.5,180.167 179.5,178.833 179.5,177.5C 180.833,177.5 182.167,177.5 183.5,177.5C 183.5,145.167 183.5,112.833 183.5,80.5C 184.822,80.33 185.989,80.6634 187,81.5C 187.667,114.5 187.667,147.5 187,180.5C 185.989,181.337 184.822,181.67 183.5,181.5C 183.5,184.167 183.5,186.833 183.5,189.5C 182.167,189.5 180.833,189.5 179.5,189.5C 180.167,193.5 178.5,195.167 174.5,194.5C 174.5,195.833 174.5,197.167 174.5,198.5C 171.833,198.5 169.167,198.5 166.5,198.5C 166.67,199.822 166.337,200.989 165.5,202C 132.5,202.667 99.5,202.667 66.5,202C 65.6634,200.989 65.33,199.822 65.5,198.5C 62.8333,198.5 60.1667,198.5 57.5,198.5C 57.5,196.833 57.5,195.167 57.5,193.5C 55.8333,193.5 54.1667,193.5 52.5,193.5C 52.5,192.167 52.5,190.833 52.5,189.5C 51.1667,189.5 49.8333,189.5 48.5,189.5C 48.5,186.833 48.5,184.167 48.5,181.5C 47.1779,181.67 46.0113,181.337 45,180.5C 44.3333,147.5 44.3333,114.5 45,81.5C 46.0113,80.6634 47.1779,80.33 48.5,80.5 Z"/></g>
<g><path style="opacity:0.098" fill="#e7e7ea" d="M 66.5,194.5 C 99.5,194.5 132.5,194.5 165.5,194.5C 165.5,195.5 165.5,196.5 165.5,197.5C 132.5,197.5 99.5,197.5 66.5,197.5C 66.5,196.5 66.5,195.5 66.5,194.5 Z"/></g>
<g><path style="opacity:1" fill="#d0d4db" d="M 48.5,80.5 C 49.4849,84.6344 49.8182,88.9677 49.5,93.5C 49.5,107.5 49.5,121.5 49.5,135.5C 49.5,149.167 49.5,162.833 49.5,176.5C 50.8333,176.5 52.1667,176.5 53.5,176.5C 53.5,177.833 53.5,179.167 53.5,180.5C 54.8333,180.5 56.1667,180.5 57.5,180.5C 57.5,179.5 57.5,178.5 57.5,177.5C 96.5,177.5 135.5,177.5 174.5,177.5C 174.5,178.5 174.5,179.5 174.5,180.5C 175.833,180.5 177.167,180.5 178.5,180.5C 178.5,179.167 178.5,177.833 178.5,176.5C 179.833,176.5 181.167,176.5 182.5,176.5C 182.5,162.833 182.5,149.167 182.5,135.5C 182.5,121.5 182.5,107.5 182.5,93.5C 182.182,88.9677 182.515,84.6344 183.5,80.5C 183.5,112.833 183.5,145.167 183.5,177.5C 182.167,177.5 180.833,177.5 179.5,177.5C 179.5,178.833 179.5,180.167 179.5,181.5C 177.833,181.5 176.167,181.5 174.5,181.5C 174.5,182.833 174.5,184.167 174.5,185.5C 173.167,185.5 171.833,185.5 170.5,185.5C 170.5,187.167 170.5,188.833 170.5,190.5C 169.167,190.5 167.833,190.5 166.5,190.5C 166.768,192.099 166.434,193.432 165.5,194.5C 132.5,194.5 99.5,194.5 66.5,194.5C 65.5655,193.432 65.2322,192.099 65.5,190.5C 64.1667,190.5 62.8333,190.5 61.5,190.5C 61.5,188.833 61.5,187.167 61.5,185.5C 60.1667,185.5 58.8333,185.5 57.5,185.5C 57.5,184.167 57.5,182.833 57.5,181.5C 55.8333,181.5 54.1667,181.5 52.5,181.5C 52.5,180.167 52.5,178.833 52.5,177.5C 51.1667,177.5 49.8333,177.5 48.5,177.5C 48.5,145.167 48.5,112.833 48.5,80.5 Z"/></g>
<g><path style="opacity:0.999" fill="#d9dee4" d="M 49.5,135.5 C 50.5,135.5 51.5,135.5 52.5,135.5C 53.3409,142.465 53.6743,149.465 53.5,156.5C 65.8333,156.5 78.1667,156.5 90.5,156.5C 90.5,157.833 90.5,159.167 90.5,160.5C 92.1667,160.5 93.8333,160.5 95.5,160.5C 95.5,161.833 95.5,163.167 95.5,164.5C 96.8333,164.5 98.1667,164.5 99.5,164.5C 100.833,164.5 102.167,164.5 103.5,164.5C 103.5,165.833 103.5,167.167 103.5,168.5C 104.833,168.5 106.167,168.5 107.5,168.5C 108.833,168.5 110.167,168.5 111.5,168.5C 111.5,169.833 111.5,171.167 111.5,172.5C 114.5,172.5 117.5,172.5 120.5,172.5C 120.5,171.167 120.5,169.833 120.5,168.5C 121.833,168.5 123.167,168.5 124.5,168.5C 125.833,168.5 127.167,168.5 128.5,168.5C 128.5,167.167 128.5,165.833 128.5,164.5C 129.833,164.5 131.167,164.5 132.5,164.5C 133.833,164.5 135.167,164.5 136.5,164.5C 136.5,163.167 136.5,161.833 136.5,160.5C 136.833,160.5 137.167,160.5 137.5,160.5C 138.833,160.5 140.167,160.5 141.5,160.5C 141.5,159.167 141.5,157.833 141.5,156.5C 142.833,156.5 144.167,156.5 145.5,156.5C 145.5,154.833 145.5,153.167 145.5,151.5C 146.833,151.5 148.167,151.5 149.5,151.5C 149.5,150.167 149.5,148.833 149.5,147.5C 150.833,147.5 152.167,147.5 153.5,147.5C 153.5,146.167 153.5,144.833 153.5,143.5C 154.833,143.5 156.167,143.5 157.5,143.5C 157.833,143.5 158.167,143.5 158.5,143.5C 158.5,144.833 158.5,146.167 158.5,147.5C 165.167,147.5 171.833,147.5 178.5,147.5C 178.505,143.466 178.838,139.466 179.5,135.5C 180.5,135.5 181.5,135.5 182.5,135.5C 182.5,149.167 182.5,162.833 182.5,176.5C 181.167,176.5 179.833,176.5 178.5,176.5C 178.5,177.833 178.5,179.167 178.5,180.5C 177.167,180.5 175.833,180.5 174.5,180.5C 174.5,179.5 174.5,178.5 174.5,177.5C 135.5,177.5 96.5,177.5 57.5,177.5C 57.5,178.5 57.5,179.5 57.5,180.5C 56.1667,180.5 54.8333,180.5 53.5,180.5C 53.5,179.167 53.5,177.833 53.5,176.5C 52.1667,176.5 50.8333,176.5 49.5,176.5C 49.5,162.833 49.5,149.167 49.5,135.5 Z"/></g>
<g><path style="opacity:1" fill="#b0ccdd" d="M 111.5,168.5 C 114.5,168.5 117.5,168.5 120.5,168.5C 120.5,169.833 120.5,171.167 120.5,172.5C 117.5,172.5 114.5,172.5 111.5,172.5C 111.5,171.167 111.5,169.833 111.5,168.5 Z"/></g>
<g><path style="opacity:1" fill="#94c3db" d="M 128.5,164.5 C 128.5,165.833 128.5,167.167 128.5,168.5C 127.167,168.5 125.833,168.5 124.5,168.5C 124.5,167.167 124.5,165.833 124.5,164.5C 125.833,164.5 127.167,164.5 128.5,164.5 Z"/></g>
<g><path style="opacity:1" fill="#8dbcd8" d="M 103.5,164.5 C 104.833,164.5 106.167,164.5 107.5,164.5C 107.5,165.833 107.5,167.167 107.5,168.5C 107.5,167.167 107.5,165.833 107.5,164.5C 106.167,164.5 104.833,164.5 103.5,164.5 Z"/></g>
<g><path style="opacity:1" fill="#aacee0" d="M 132.5,160.5 C 133.833,160.5 135.167,160.5 136.5,160.5C 136.5,161.833 136.5,163.167 136.5,164.5C 135.167,164.5 133.833,164.5 132.5,164.5C 132.5,163.167 132.5,161.833 132.5,160.5 Z"/></g>
<g><path style="opacity:1" fill="#2190cc" d="M 103.5,156.5 C 107.5,156.5 111.5,156.5 115.5,156.5C 116.833,156.5 118.167,156.5 119.5,156.5C 120.162,160.466 120.495,164.466 120.5,168.5C 117.5,168.5 114.5,168.5 111.5,168.5C 110.167,168.5 108.833,168.5 107.5,168.5C 107.5,167.167 107.5,165.833 107.5,164.5C 106.167,164.5 104.833,164.5 103.5,164.5C 102.167,164.5 100.833,164.5 99.5,164.5C 99.5,163.167 99.5,161.833 99.5,160.5C 100.833,160.5 102.167,160.5 103.5,160.5C 103.5,159.167 103.5,157.833 103.5,156.5 Z"/></g>
<g><path style="opacity:1" fill="#84c3de" d="M 141.5,156.5 C 141.5,157.833 141.5,159.167 141.5,160.5C 140.167,160.5 138.833,160.5 137.5,160.5C 137.5,159.167 137.5,157.833 137.5,156.5C 138.833,156.5 140.167,156.5 141.5,156.5 Z"/></g>
<g><path style="opacity:1" fill="#7eb6d8" d="M 103.5,156.5 C 103.5,157.833 103.5,159.167 103.5,160.5C 102.167,160.5 100.833,160.5 99.5,160.5C 99.5,161.833 99.5,163.167 99.5,164.5C 98.1667,164.5 96.8333,164.5 95.5,164.5C 95.5,163.167 95.5,161.833 95.5,160.5C 95.5,159.167 95.5,157.833 95.5,156.5C 98.1667,156.5 100.833,156.5 103.5,156.5 Z"/></g>
<g><path style="opacity:1" fill="#32a2d4" d="M 128.5,147.5 C 129.833,147.5 131.167,147.5 132.5,147.5C 132.5,148.833 132.5,150.167 132.5,151.5C 133.833,151.5 135.167,151.5 136.5,151.5C 136.5,154.167 136.5,156.833 136.5,159.5C 134.901,159.232 133.568,159.566 132.5,160.5C 132.5,161.833 132.5,163.167 132.5,164.5C 131.167,164.5 129.833,164.5 128.5,164.5C 127.167,164.5 125.833,164.5 124.5,164.5C 124.5,165.833 124.5,167.167 124.5,168.5C 123.167,168.5 121.833,168.5 120.5,168.5C 120.495,164.466 120.162,160.466 119.5,156.5C 118.167,156.5 116.833,156.5 115.5,156.5C 116.234,155.292 116.567,153.959 116.5,152.5C 119.167,152.167 121.833,151.833 124.5,151.5C 124.5,150.167 124.5,148.833 124.5,147.5C 125.833,147.5 127.167,147.5 128.5,147.5 Z"/></g>
<g><path style="opacity:1" fill="#b9d4e3" d="M 124.5,143.5 C 125.833,143.5 127.167,143.5 128.5,143.5C 128.5,144.833 128.5,146.167 128.5,147.5C 127.167,147.5 125.833,147.5 124.5,147.5C 124.5,148.833 124.5,150.167 124.5,151.5C 121.833,151.833 119.167,152.167 116.5,152.5C 116.567,153.959 116.234,155.292 115.5,156.5C 111.5,156.5 107.5,156.5 103.5,156.5C 100.833,156.5 98.1667,156.5 95.5,156.5C 95.5,157.833 95.5,159.167 95.5,160.5C 93.8333,160.5 92.1667,160.5 90.5,160.5C 90.5,159.167 90.5,157.833 90.5,156.5C 97.3134,155.509 104.313,155.175 111.5,155.5C 111.5,154.5 111.5,153.5 111.5,152.5C 110.167,152.5 108.833,152.5 107.5,152.5C 107.5,151.167 107.5,149.833 107.5,148.5C 105.901,148.768 104.568,148.434 103.5,147.5C 109.167,147.5 114.833,147.5 120.5,147.5C 120.5,146.167 120.5,144.833 120.5,143.5C 121.833,143.5 123.167,143.5 124.5,143.5 Z"/></g>
<g><path style="opacity:1" fill="#e1e5ea" d="M 49.5,93.5 C 50.5,93.5 51.5,93.5 52.5,93.5C 52.9068,99.1613 53.2401,104.828 53.5,110.5C 57.5,110.5 61.5,110.5 65.5,110.5C 65.5,115.833 65.5,121.167 65.5,126.5C 65.5,128.167 65.5,129.833 65.5,131.5C 66.8333,131.5 68.1667,131.5 69.5,131.5C 69.5,132.833 69.5,134.167 69.5,135.5C 69.5,136.833 69.5,138.167 69.5,139.5C 70.8333,139.5 72.1667,139.5 73.5,139.5C 73.8333,139.5 74.1667,139.5 74.5,139.5C 74.5,140.833 74.5,142.167 74.5,143.5C 75.8333,143.5 77.1667,143.5 78.5,143.5C 79.8333,143.5 81.1667,143.5 82.5,143.5C 82.5,144.833 82.5,146.167 82.5,147.5C 85.1667,147.5 87.8333,147.5 90.5,147.5C 90.5,146.167 90.5,144.833 90.5,143.5C 92.1667,143.5 93.8333,143.5 95.5,143.5C 96.8333,143.5 98.1667,143.5 99.5,143.5C 100.833,143.5 102.167,143.5 103.5,143.5C 103.5,144.833 103.5,146.167 103.5,147.5C 104.568,148.434 105.901,148.768 107.5,148.5C 107.5,149.833 107.5,151.167 107.5,152.5C 108.833,152.5 110.167,152.5 111.5,152.5C 111.5,153.5 111.5,154.5 111.5,155.5C 104.313,155.175 97.3134,155.509 90.5,156.5C 78.1667,156.5 65.8333,156.5 53.5,156.5C 53.6743,149.465 53.3409,142.465 52.5,135.5C 51.5,135.5 50.5,135.5 49.5,135.5C 49.5,121.5 49.5,107.5 49.5,93.5 Z"/></g>
<g><path style="opacity:1" fill="#b0cfe2" d="M 82.5,143.5 C 85.1667,143.5 87.8333,143.5 90.5,143.5C 90.5,144.833 90.5,146.167 90.5,147.5C 87.8333,147.5 85.1667,147.5 82.5,147.5C 82.5,146.167 82.5,144.833 82.5,143.5 Z"/></g>
<g><path style="opacity:1" fill="#4dc0b0" d="M 149.5,143.5 C 150.833,143.5 152.167,143.5 153.5,143.5C 153.5,144.833 153.5,146.167 153.5,147.5C 152.167,147.5 150.833,147.5 149.5,147.5C 149.5,146.167 149.5,144.833 149.5,143.5 Z"/></g>
<g><path style="opacity:1" fill="#3ab6c4" d="M 145.5,143.5 C 146.833,143.5 148.167,143.5 149.5,143.5C 149.5,144.833 149.5,146.167 149.5,147.5C 148.167,147.5 146.833,147.5 145.5,147.5C 145.5,146.167 145.5,144.833 145.5,143.5 Z"/></g>
<g><path style="opacity:1" fill="#3eafd8" d="M 124.5,139.5 C 127.167,139.5 129.833,139.5 132.5,139.5C 132.5,140.833 132.5,142.167 132.5,143.5C 133.833,143.5 135.167,143.5 136.5,143.5C 138.167,143.5 139.833,143.5 141.5,143.5C 142.833,143.5 144.167,143.5 145.5,143.5C 145.5,144.833 145.5,146.167 145.5,147.5C 146.833,147.5 148.167,147.5 149.5,147.5C 149.5,148.833 149.5,150.167 149.5,151.5C 148.167,151.5 146.833,151.5 145.5,151.5C 145.5,153.167 145.5,154.833 145.5,156.5C 144.167,156.5 142.833,156.5 141.5,156.5C 140.167,156.5 138.833,156.5 137.5,156.5C 137.5,157.833 137.5,159.167 137.5,160.5C 137.167,160.5 136.833,160.5 136.5,160.5C 135.167,160.5 133.833,160.5 132.5,160.5C 133.568,159.566 134.901,159.232 136.5,159.5C 136.5,156.833 136.5,154.167 136.5,151.5C 135.167,151.5 133.833,151.5 132.5,151.5C 132.5,150.167 132.5,148.833 132.5,147.5C 131.167,147.5 129.833,147.5 128.5,147.5C 128.5,146.167 128.5,144.833 128.5,143.5C 127.167,143.5 125.833,143.5 124.5,143.5C 124.5,142.167 124.5,140.833 124.5,139.5 Z"/></g>
<g><path style="opacity:1" fill="#53c59f" d="M 157.5,139.5 C 157.5,140.833 157.5,142.167 157.5,143.5C 156.167,143.5 154.833,143.5 153.5,143.5C 153.5,142.167 153.5,140.833 153.5,139.5C 154.833,139.5 156.167,139.5 157.5,139.5 Z"/></g>
<g><path style="opacity:1" fill="#36b5b4" d="M 132.5,139.5 C 133.833,139.5 135.167,139.5 136.5,139.5C 136.5,140.833 136.5,142.167 136.5,143.5C 136.5,142.167 136.5,140.833 136.5,139.5C 135.167,139.5 133.833,139.5 132.5,139.5 Z"/></g>
<g><path style="opacity:1" fill="#82bedd" d="M 99.5,139.5 C 102.167,139.5 104.833,139.5 107.5,139.5C 107.5,140.833 107.5,142.167 107.5,143.5C 106.167,143.5 104.833,143.5 103.5,143.5C 102.167,143.5 100.833,143.5 99.5,143.5C 99.5,142.167 99.5,140.833 99.5,139.5 Z"/></g>
<g><path style="opacity:1" fill="#65aad5" d="M 74.5,139.5 C 75.8333,139.5 77.1667,139.5 78.5,139.5C 78.5,140.833 78.5,142.167 78.5,143.5C 78.5,142.167 78.5,140.833 78.5,139.5C 77.1667,139.5 75.8333,139.5 74.5,139.5 Z"/></g>
<g><path style="opacity:1" fill="#8ed3c1" d="M 161.5,122.5 C 162.434,123.568 162.768,124.901 162.5,126.5C 163.5,126.5 164.5,126.5 165.5,126.5C 165.5,127.833 165.5,129.167 165.5,130.5C 164.209,130.263 163.209,130.596 162.5,131.5C 162.5,134.167 162.5,136.833 162.5,139.5C 161.167,139.5 159.833,139.5 158.5,139.5C 158.5,140.833 158.5,142.167 158.5,143.5C 158.167,143.5 157.833,143.5 157.5,143.5C 157.5,142.167 157.5,140.833 157.5,139.5C 157.5,138.167 157.5,136.833 157.5,135.5C 158.833,135.5 160.167,135.5 161.5,135.5C 161.5,131.167 161.5,126.833 161.5,122.5 Z"/></g>
<g><path style="opacity:1" fill="#31b0b7" d="M 120.5,135.5 C 121.833,135.5 123.167,135.5 124.5,135.5C 124.5,136.833 124.5,138.167 124.5,139.5C 123.167,139.5 121.833,139.5 120.5,139.5C 120.5,138.167 120.5,136.833 120.5,135.5 Z"/></g>
<g><path style="opacity:1" fill="#6cbcdc" d="M 111.5,135.5 C 114.167,135.5 116.833,135.5 119.5,135.5C 119.833,135.5 120.167,135.5 120.5,135.5C 120.5,136.833 120.5,138.167 120.5,139.5C 117.5,139.5 114.5,139.5 111.5,139.5C 111.5,138.167 111.5,136.833 111.5,135.5 Z"/></g>
<g><path style="opacity:1" fill="#9cc4de" d="M 69.5,135.5 C 70.8333,135.5 72.1667,135.5 73.5,135.5C 73.5,136.833 73.5,138.167 73.5,139.5C 73.5,138.167 73.5,136.833 73.5,135.5C 72.1667,135.5 70.8333,135.5 69.5,135.5 Z"/></g>
<g><path style="opacity:1" fill="#49bea3" d="M 120.5,130.5 C 121.833,130.5 123.167,130.5 124.5,130.5C 124.5,132.167 124.5,133.833 124.5,135.5C 123.167,135.5 121.833,135.5 120.5,135.5C 120.5,133.833 120.5,132.167 120.5,130.5 Z"/></g>
<g><path style="opacity:1" fill="#bcdbe2" d="M 111.5,131.5 C 114.167,131.5 116.833,131.5 119.5,131.5C 119.5,132.833 119.5,134.167 119.5,135.5C 116.833,135.5 114.167,135.5 111.5,135.5C 111.5,134.167 111.5,132.833 111.5,131.5 Z"/></g>
<g><path style="opacity:1" fill="#aacde2" d="M 65.5,126.5 C 66.8333,126.5 68.1667,126.5 69.5,126.5C 69.5,128.167 69.5,129.833 69.5,131.5C 68.1667,131.5 66.8333,131.5 65.5,131.5C 65.5,129.833 65.5,128.167 65.5,126.5 Z"/></g>
<g><path style="opacity:1" fill="#7ac9bf" d="M 111.5,126.5 C 114.5,126.5 117.5,126.5 120.5,126.5C 120.5,127.833 120.5,129.167 120.5,130.5C 120.5,132.167 120.5,133.833 120.5,135.5C 120.167,135.5 119.833,135.5 119.5,135.5C 119.5,134.167 119.5,132.833 119.5,131.5C 116.833,131.5 114.167,131.5 111.5,131.5C 109.901,131.768 108.568,131.434 107.5,130.5C 108.833,130.5 110.167,130.5 111.5,130.5C 111.5,129.167 111.5,127.833 111.5,126.5 Z"/></g>
<g><path style="opacity:1" fill="#33b59c" d="M 107.5,126.5 C 108.833,126.5 110.167,126.5 111.5,126.5C 111.5,127.833 111.5,129.167 111.5,130.5C 110.167,130.5 108.833,130.5 107.5,130.5C 107.5,129.167 107.5,127.833 107.5,126.5 Z"/></g>
<g><path style="opacity:1" fill="#2ba9c1" d="M 103.5,126.5 C 104.833,126.5 106.167,126.5 107.5,126.5C 107.5,127.833 107.5,129.167 107.5,130.5C 106.167,130.5 104.833,130.5 103.5,130.5C 103.5,129.167 103.5,127.833 103.5,126.5 Z"/></g>
<g><path style="opacity:1" fill="#47c583" d="M 132.5,118.5 C 134.167,118.5 135.833,118.5 137.5,118.5C 140.167,118.5 142.833,118.5 145.5,118.5C 148.167,118.5 150.833,118.5 153.5,118.5C 153.5,119.833 153.5,121.167 153.5,122.5C 154.833,122.5 156.167,122.5 157.5,122.5C 158.833,122.5 160.167,122.5 161.5,122.5C 161.5,126.833 161.5,131.167 161.5,135.5C 160.167,135.5 158.833,135.5 157.5,135.5C 157.5,136.833 157.5,138.167 157.5,139.5C 156.167,139.5 154.833,139.5 153.5,139.5C 153.5,140.833 153.5,142.167 153.5,143.5C 152.167,143.5 150.833,143.5 149.5,143.5C 148.167,143.5 146.833,143.5 145.5,143.5C 144.167,143.5 142.833,143.5 141.5,143.5C 141.167,140.833 140.833,138.167 140.5,135.5C 137.5,135.833 136.167,134.5 136.5,131.5C 135.167,131.5 133.833,131.5 132.5,131.5C 132.5,130.167 132.5,128.833 132.5,127.5C 131.167,127.5 129.833,127.5 128.5,127.5C 128.5,126.167 128.5,124.833 128.5,123.5C 130.099,123.768 131.432,123.434 132.5,122.5C 132.5,121.167 132.5,119.833 132.5,118.5 Z"/></g>
<g><path style="opacity:1" fill="#2bacaf" d="M 99.5,122.5 C 100.833,122.5 102.167,122.5 103.5,122.5C 103.5,123.833 103.5,125.167 103.5,126.5C 103.5,125.167 103.5,123.833 103.5,122.5C 102.167,122.5 100.833,122.5 99.5,122.5 Z"/></g>
<g><path style="opacity:1" fill="#37bd84" d="M 103.5,89.5 C 104.833,89.5 106.167,89.5 107.5,89.5C 107.5,90.8333 107.5,92.1667 107.5,93.5C 106.167,93.5 104.833,93.5 103.5,93.5C 103.5,96.1667 103.5,98.8333 103.5,101.5C 104.833,101.5 106.167,101.5 107.5,101.5C 107.5,102.833 107.5,104.167 107.5,105.5C 108.833,105.5 110.167,105.5 111.5,105.5C 111.5,106.833 111.5,108.167 111.5,109.5C 109.901,109.232 108.568,109.566 107.5,110.5C 106.167,110.5 104.833,110.5 103.5,110.5C 103.5,111.833 103.5,113.167 103.5,114.5C 103.5,115.833 103.5,117.167 103.5,118.5C 104.833,118.5 106.167,118.5 107.5,118.5C 108.833,118.5 110.167,118.5 111.5,118.5C 111.5,117.167 111.5,115.833 111.5,114.5C 112.833,114.5 114.167,114.5 115.5,114.5C 118.5,114.5 121.5,114.5 124.5,114.5C 124.5,117.167 124.5,119.833 124.5,122.5C 125.833,122.5 127.167,122.5 128.5,122.5C 129.833,122.5 131.167,122.5 132.5,122.5C 131.432,123.434 130.099,123.768 128.5,123.5C 128.5,124.833 128.5,126.167 128.5,127.5C 129.833,127.5 131.167,127.5 132.5,127.5C 132.5,128.833 132.5,130.167 132.5,131.5C 133.833,131.5 135.167,131.5 136.5,131.5C 136.167,134.5 137.5,135.833 140.5,135.5C 140.833,138.167 141.167,140.833 141.5,143.5C 139.833,143.5 138.167,143.5 136.5,143.5C 136.5,142.167 136.5,140.833 136.5,139.5C 135.167,139.5 133.833,139.5 132.5,139.5C 129.833,139.5 127.167,139.5 124.5,139.5C 124.5,138.167 124.5,136.833 124.5,135.5C 124.5,133.833 124.5,132.167 124.5,130.5C 123.167,130.5 121.833,130.5 120.5,130.5C 120.5,129.167 120.5,127.833 120.5,126.5C 120.5,125.167 120.5,123.833 120.5,122.5C 117.5,122.5 114.5,122.5 111.5,122.5C 111.5,123.833 111.5,125.167 111.5,126.5C 110.167,126.5 108.833,126.5 107.5,126.5C 106.167,126.5 104.833,126.5 103.5,126.5C 103.5,125.167 103.5,123.833 103.5,122.5C 102.167,122.5 100.833,122.5 99.5,122.5C 99.5,121.167 99.5,119.833 99.5,118.5C 98.1667,118.5 96.8333,118.5 95.5,118.5C 95.1667,118.5 94.8333,118.5 94.5,118.5C 94.5,117.167 94.5,115.833 94.5,114.5C 93.1667,114.5 91.8333,114.5 90.5,114.5C 90.5,113.167 90.5,111.833 90.5,110.5C 89.1667,110.5 87.8333,110.5 86.5,110.5C 86.5,110.167 86.5,109.833 86.5,109.5C 86.5,108.167 86.5,106.833 86.5,105.5C 85.1667,105.5 83.8333,105.5 82.5,105.5C 82.5,104.167 82.5,102.833 82.5,101.5C 82.5,100.167 82.5,98.8333 82.5,97.5C 81.1667,97.5 79.8333,97.5 78.5,97.5C 78.5,96.1667 78.5,94.8333 78.5,93.5C 78.5,92.1667 78.5,90.8333 78.5,89.5C 79.8333,89.5 81.1667,89.5 82.5,89.5C 82.5,88.1667 82.5,86.8333 82.5,85.5C 88.1667,85.5 93.8333,85.5 99.5,85.5C 99.5,86.8333 99.5,88.1667 99.5,89.5C 100.833,89.5 102.167,89.5 103.5,89.5 Z"/></g>
<g><path style="opacity:1" fill="#3fbd96" d="M 120.5,126.5 C 117.5,126.5 114.5,126.5 111.5,126.5C 111.5,125.167 111.5,123.833 111.5,122.5C 114.5,122.5 117.5,122.5 120.5,122.5C 120.5,123.833 120.5,125.167 120.5,126.5 Z"/></g>
<g><path style="opacity:1" fill="#e5e7ec" d="M 182.5,93.5 C 182.5,107.5 182.5,121.5 182.5,135.5C 181.5,135.5 180.5,135.5 179.5,135.5C 178.838,139.466 178.505,143.466 178.5,147.5C 171.833,147.5 165.167,147.5 158.5,147.5C 158.5,146.167 158.5,144.833 158.5,143.5C 158.5,142.167 158.5,140.833 158.5,139.5C 159.833,139.5 161.167,139.5 162.5,139.5C 162.5,136.833 162.5,134.167 162.5,131.5C 163.833,131.5 165.167,131.5 166.5,131.5C 166.5,127.167 166.5,122.833 166.5,118.5C 166.5,115.833 166.5,113.167 166.5,110.5C 170.5,110.5 174.5,110.5 178.5,110.5C 178.76,104.828 179.093,99.1613 179.5,93.5C 180.5,93.5 181.5,93.5 182.5,93.5 Z"/></g>
<g><path style="opacity:1" fill="#b9dfda" d="M 157.5,114.5 C 158.833,114.5 160.167,114.5 161.5,114.5C 161.5,115.833 161.5,117.167 161.5,118.5C 162.833,118.5 164.167,118.5 165.5,118.5C 165.833,118.5 166.167,118.5 166.5,118.5C 166.5,122.833 166.5,127.167 166.5,131.5C 165.167,131.5 163.833,131.5 162.5,131.5C 163.209,130.596 164.209,130.263 165.5,130.5C 165.5,129.167 165.5,127.833 165.5,126.5C 164.5,126.5 163.5,126.5 162.5,126.5C 162.768,124.901 162.434,123.568 161.5,122.5C 160.167,122.5 158.833,122.5 157.5,122.5C 157.5,121.167 157.5,119.833 157.5,118.5C 157.5,117.167 157.5,115.833 157.5,114.5 Z"/></g>
<g><path style="opacity:1" fill="#65cda6" d="M 153.5,118.5 C 154.833,118.5 156.167,118.5 157.5,118.5C 157.5,119.833 157.5,121.167 157.5,122.5C 156.167,122.5 154.833,122.5 153.5,122.5C 153.5,121.167 153.5,119.833 153.5,118.5 Z"/></g>
<g><path style="opacity:1" fill="#53c5a1" d="M 128.5,118.5 C 129.833,118.5 131.167,118.5 132.5,118.5C 132.5,119.833 132.5,121.167 132.5,122.5C 131.167,122.5 129.833,122.5 128.5,122.5C 128.5,121.167 128.5,119.833 128.5,118.5 Z"/></g>
<g><path style="opacity:1" fill="#7acdbd" d="M 124.5,114.5 C 125.833,114.5 127.167,114.5 128.5,114.5C 128.5,115.833 128.5,117.167 128.5,118.5C 128.5,119.833 128.5,121.167 128.5,122.5C 127.167,122.5 125.833,122.5 124.5,122.5C 124.5,119.833 124.5,117.167 124.5,114.5 Z"/></g>
<g><path style="opacity:1" fill="#2ab09f" d="M 95.5,118.5 C 96.8333,118.5 98.1667,118.5 99.5,118.5C 99.5,119.833 99.5,121.167 99.5,122.5C 98.1667,122.5 96.8333,122.5 95.5,122.5C 95.5,121.167 95.5,119.833 95.5,118.5 Z"/></g>
<g><path style="opacity:1" fill="#2399d1" d="M 69.5,106.5 C 71.1667,106.5 72.8333,106.5 74.5,106.5C 74.5,107.5 74.5,108.5 74.5,109.5C 77.9103,109.384 79.2436,111.05 78.5,114.5C 79.8333,114.5 81.1667,114.5 82.5,114.5C 82.5,115.833 82.5,117.167 82.5,118.5C 83.8333,118.5 85.1667,118.5 86.5,118.5C 86.5,119.833 86.5,121.167 86.5,122.5C 89.9496,121.756 91.6162,123.09 91.5,126.5C 92.5,126.5 93.5,126.5 94.5,126.5C 94.5,127.833 94.5,129.167 94.5,130.5C 98.5,129.833 100.167,131.5 99.5,135.5C 100.833,135.5 102.167,135.5 103.5,135.5C 103.5,136.5 103.5,137.5 103.5,138.5C 101.901,138.232 100.568,138.566 99.5,139.5C 99.5,140.833 99.5,142.167 99.5,143.5C 98.1667,143.5 96.8333,143.5 95.5,143.5C 95.5,141.833 95.5,140.167 95.5,138.5C 96.5,138.5 97.5,138.5 98.5,138.5C 98.5,137.5 98.5,136.5 98.5,135.5C 96.1432,135.663 93.8098,135.497 91.5,135C 90.6198,133.644 90.2865,132.144 90.5,130.5C 89.1667,130.5 87.8333,130.5 86.5,130.5C 86.5,129.167 86.5,127.833 86.5,126.5C 85.1667,126.5 83.8333,126.5 82.5,126.5C 82.5,125.167 82.5,123.833 82.5,122.5C 81.1667,122.5 79.8333,122.5 78.5,122.5C 78.5,121.167 78.5,119.833 78.5,118.5C 77.1667,118.5 75.8333,118.5 74.5,118.5C 74.4249,115.794 74.0916,113.127 73.5,110.5C 72.1667,110.5 70.8333,110.5 69.5,110.5C 69.5,109.167 69.5,107.833 69.5,106.5 Z"/></g>
<g><path style="opacity:1" fill="#4bc1a0" d="M 107.5,114.5 C 108.833,114.5 110.167,114.5 111.5,114.5C 111.5,115.833 111.5,117.167 111.5,118.5C 110.167,118.5 108.833,118.5 107.5,118.5C 107.5,117.167 107.5,115.833 107.5,114.5 Z"/></g>
<g><path style="opacity:1" fill="#d3e6e6" d="M 103.5,114.5 C 104.833,114.5 106.167,114.5 107.5,114.5C 107.5,115.833 107.5,117.167 107.5,118.5C 106.167,118.5 104.833,118.5 103.5,118.5C 103.5,117.167 103.5,115.833 103.5,114.5 Z"/></g>
<g><path style="opacity:1" fill="#2aaea5" d="M 90.5,114.5 C 91.8333,114.5 93.1667,114.5 94.5,114.5C 94.5,115.833 94.5,117.167 94.5,118.5C 93.1667,118.5 91.8333,118.5 90.5,118.5C 90.5,117.167 90.5,115.833 90.5,114.5 Z"/></g>
<g><path style="opacity:1" fill="#1d8ecb" d="M 69.5,106.5 C 69.5,107.833 69.5,109.167 69.5,110.5C 70.8333,110.5 72.1667,110.5 73.5,110.5C 74.0916,113.127 74.4249,115.794 74.5,118.5C 75.8333,118.5 77.1667,118.5 78.5,118.5C 78.5,119.833 78.5,121.167 78.5,122.5C 79.8333,122.5 81.1667,122.5 82.5,122.5C 82.5,123.833 82.5,125.167 82.5,126.5C 83.8333,126.5 85.1667,126.5 86.5,126.5C 86.5,127.833 86.5,129.167 86.5,130.5C 87.8333,130.5 89.1667,130.5 90.5,130.5C 90.2865,132.144 90.6198,133.644 91.5,135C 93.8098,135.497 96.1432,135.663 98.5,135.5C 98.5,136.5 98.5,137.5 98.5,138.5C 97.5,138.5 96.5,138.5 95.5,138.5C 95.5,140.167 95.5,141.833 95.5,143.5C 93.8333,143.5 92.1667,143.5 90.5,143.5C 87.8333,143.5 85.1667,143.5 82.5,143.5C 81.1667,143.5 79.8333,143.5 78.5,143.5C 78.5,142.167 78.5,140.833 78.5,139.5C 77.1667,139.5 75.8333,139.5 74.5,139.5C 74.1667,139.5 73.8333,139.5 73.5,139.5C 73.5,138.167 73.5,136.833 73.5,135.5C 72.1667,135.5 70.8333,135.5 69.5,135.5C 69.5,134.167 69.5,132.833 69.5,131.5C 69.5,129.833 69.5,128.167 69.5,126.5C 69.5,125.167 69.5,123.833 69.5,122.5C 68.5,122.5 67.5,122.5 66.5,122.5C 66.5,117.167 66.5,111.833 66.5,106.5C 67.5,106.5 68.5,106.5 69.5,106.5 Z"/></g>
<g><path style="opacity:1" fill="#adddd4" d="M 153.5,110.5 C 154.833,110.5 156.167,110.5 157.5,110.5C 157.5,111.833 157.5,113.167 157.5,114.5C 157.5,113.167 157.5,111.833 157.5,110.5C 156.167,110.5 154.833,110.5 153.5,110.5 Z"/></g>
<g><path style="opacity:1" fill="#eaeef0" d="M 116.5,106.5 C 126.167,106.5 135.833,106.5 145.5,106.5C 145.5,107.833 145.5,109.167 145.5,110.5C 148.167,110.5 150.833,110.5 153.5,110.5C 153.5,111.833 153.5,113.167 153.5,114.5C 154.833,114.5 156.167,114.5 157.5,114.5C 157.5,115.833 157.5,117.167 157.5,118.5C 156.167,118.5 154.833,118.5 153.5,118.5C 150.833,118.5 148.167,118.5 145.5,118.5C 145.5,117.167 145.5,115.833 145.5,114.5C 142.833,114.5 140.167,114.5 137.5,114.5C 137.5,115.833 137.5,117.167 137.5,118.5C 135.833,118.5 134.167,118.5 132.5,118.5C 131.167,118.5 129.833,118.5 128.5,118.5C 128.5,117.167 128.5,115.833 128.5,114.5C 127.167,114.5 125.833,114.5 124.5,114.5C 124.5,113.167 124.5,111.833 124.5,110.5C 122.052,109.527 119.385,109.194 116.5,109.5C 116.5,108.5 116.5,107.5 116.5,106.5 Z"/></g>
<g><path style="opacity:1" fill="#aadcd3" d="M 145.5,118.5 C 142.833,118.5 140.167,118.5 137.5,118.5C 137.5,117.167 137.5,115.833 137.5,114.5C 140.167,114.5 142.833,114.5 145.5,114.5C 145.5,115.833 145.5,117.167 145.5,118.5 Z"/></g>
<g><path style="opacity:1" fill="#9cd8ce" d="M 124.5,110.5 C 124.5,111.833 124.5,113.167 124.5,114.5C 121.5,114.5 118.5,114.5 115.5,114.5C 116.234,113.292 116.567,111.959 116.5,110.5C 119.167,110.5 121.833,110.5 124.5,110.5 Z"/></g>
<g><path style="opacity:1" fill="#c9e4e2" d="M 116.5,106.5 C 116.5,107.5 116.5,108.5 116.5,109.5C 119.385,109.194 122.052,109.527 124.5,110.5C 121.833,110.5 119.167,110.5 116.5,110.5C 116.567,111.959 116.234,113.292 115.5,114.5C 114.167,114.5 112.833,114.5 111.5,114.5C 110.167,114.5 108.833,114.5 107.5,114.5C 107.5,113.167 107.5,111.833 107.5,110.5C 110.167,110.5 112.833,110.5 115.5,110.5C 115.232,108.901 115.566,107.568 116.5,106.5 Z"/></g>
<g><path style="opacity:1" fill="#56c2a9" d="M 107.5,110.5 C 107.5,111.833 107.5,113.167 107.5,114.5C 106.167,114.5 104.833,114.5 103.5,114.5C 103.5,113.167 103.5,111.833 103.5,110.5C 104.833,110.5 106.167,110.5 107.5,110.5 Z"/></g>
<g><path style="opacity:1" fill="#2baab8" d="M 86.5,110.5 C 87.8333,110.5 89.1667,110.5 90.5,110.5C 90.5,111.833 90.5,113.167 90.5,114.5C 89.1667,114.5 87.8333,114.5 86.5,114.5C 86.5,113.167 86.5,111.833 86.5,110.5 Z"/></g>
<g><path style="opacity:1" fill="#6ecfa6" d="M 145.5,106.5 C 145.5,106.167 145.5,105.833 145.5,105.5C 148.167,105.5 150.833,105.5 153.5,105.5C 153.5,106.833 153.5,108.167 153.5,109.5C 152.167,109.5 150.833,109.5 149.5,109.5C 149.5,108.5 149.5,107.5 149.5,106.5C 148.167,106.5 146.833,106.5 145.5,106.5 Z"/></g>
<g><path style="opacity:1" fill="#acded2" d="M 145.5,106.5 C 146.833,106.5 148.167,106.5 149.5,106.5C 149.5,107.5 149.5,108.5 149.5,109.5C 150.833,109.5 152.167,109.5 153.5,109.5C 153.5,109.833 153.5,110.167 153.5,110.5C 150.833,110.5 148.167,110.5 145.5,110.5C 145.5,109.167 145.5,107.833 145.5,106.5 Z"/></g>
<g><path style="opacity:1" fill="#2ba9c1" d="M 82.5,105.5 C 83.8333,105.5 85.1667,105.5 86.5,105.5C 86.5,106.833 86.5,108.167 86.5,109.5C 85.1667,109.5 83.8333,109.5 82.5,109.5C 82.5,108.167 82.5,106.833 82.5,105.5 Z"/></g>
<g><path style="opacity:1" fill="#8cdbab" d="M 161.5,93.5 C 162.434,94.5676 162.768,95.901 162.5,97.5C 163.833,97.5 165.167,97.5 166.5,97.5C 166.5,101.833 166.5,106.167 166.5,110.5C 166.5,113.167 166.5,115.833 166.5,118.5C 166.167,118.5 165.833,118.5 165.5,118.5C 165.5,112.833 165.5,107.167 165.5,101.5C 164.167,101.5 162.833,101.5 161.5,101.5C 161.5,98.8333 161.5,96.1667 161.5,93.5 Z"/></g>
<g><path style="opacity:1" fill="#abdecf" d="M 111.5,105.5 C 115.833,105.5 120.167,105.5 124.5,105.5C 128.5,105.5 132.5,105.5 136.5,105.5C 139.5,105.5 142.5,105.5 145.5,105.5C 145.5,105.833 145.5,106.167 145.5,106.5C 135.833,106.5 126.167,106.5 116.5,106.5C 115.566,107.568 115.232,108.901 115.5,110.5C 112.833,110.5 110.167,110.5 107.5,110.5C 108.568,109.566 109.901,109.232 111.5,109.5C 111.5,108.167 111.5,106.833 111.5,105.5 Z"/></g>
<g><path style="opacity:1" fill="#2db2a1" d="M 78.5,97.5 C 79.8333,97.5 81.1667,97.5 82.5,97.5C 82.5,98.8333 82.5,100.167 82.5,101.5C 81.1667,101.5 79.8333,101.5 78.5,101.5C 78.5,100.167 78.5,98.8333 78.5,97.5 Z"/></g>
<g><path style="opacity:1" fill="#32a3d4" d="M 70.5,93.5 C 71.8333,93.5 73.1667,93.5 74.5,93.5C 74.5,94.8333 74.5,96.1667 74.5,97.5C 75.8333,97.5 77.1667,97.5 78.5,97.5C 78.5,98.8333 78.5,100.167 78.5,101.5C 79.8333,101.5 81.1667,101.5 82.5,101.5C 82.5,102.833 82.5,104.167 82.5,105.5C 82.5,106.833 82.5,108.167 82.5,109.5C 83.8333,109.5 85.1667,109.5 86.5,109.5C 86.5,109.833 86.5,110.167 86.5,110.5C 86.5,111.833 86.5,113.167 86.5,114.5C 87.8333,114.5 89.1667,114.5 90.5,114.5C 90.5,115.833 90.5,117.167 90.5,118.5C 91.8333,118.5 93.1667,118.5 94.5,118.5C 94.8333,118.5 95.1667,118.5 95.5,118.5C 95.5,119.833 95.5,121.167 95.5,122.5C 96.8333,122.5 98.1667,122.5 99.5,122.5C 99.5,123.833 99.5,125.167 99.5,126.5C 100.833,126.5 102.167,126.5 103.5,126.5C 103.5,127.833 103.5,129.167 103.5,130.5C 104.833,130.5 106.167,130.5 107.5,130.5C 108.568,131.434 109.901,131.768 111.5,131.5C 111.5,132.833 111.5,134.167 111.5,135.5C 111.5,136.833 111.5,138.167 111.5,139.5C 114.5,139.5 117.5,139.5 120.5,139.5C 121.833,139.5 123.167,139.5 124.5,139.5C 124.5,140.833 124.5,142.167 124.5,143.5C 123.167,143.5 121.833,143.5 120.5,143.5C 120.5,144.833 120.5,146.167 120.5,147.5C 114.833,147.5 109.167,147.5 103.5,147.5C 103.5,146.167 103.5,144.833 103.5,143.5C 104.833,143.5 106.167,143.5 107.5,143.5C 107.5,142.167 107.5,140.833 107.5,139.5C 104.833,139.5 102.167,139.5 99.5,139.5C 100.568,138.566 101.901,138.232 103.5,138.5C 103.5,137.5 103.5,136.5 103.5,135.5C 102.167,135.5 100.833,135.5 99.5,135.5C 100.167,131.5 98.5,129.833 94.5,130.5C 94.5,129.167 94.5,127.833 94.5,126.5C 93.5,126.5 92.5,126.5 91.5,126.5C 91.6162,123.09 89.9496,121.756 86.5,122.5C 86.5,121.167 86.5,119.833 86.5,118.5C 85.1667,118.5 83.8333,118.5 82.5,118.5C 82.5,117.167 82.5,115.833 82.5,114.5C 81.1667,114.5 79.8333,114.5 78.5,114.5C 79.2436,111.05 77.9103,109.384 74.5,109.5C 74.5,108.5 74.5,107.5 74.5,106.5C 72.8333,106.5 71.1667,106.5 69.5,106.5C 68.5,106.5 67.5,106.5 66.5,106.5C 66.5,111.833 66.5,117.167 66.5,122.5C 67.5,122.5 68.5,122.5 69.5,122.5C 69.5,123.833 69.5,125.167 69.5,126.5C 68.1667,126.5 66.8333,126.5 65.5,126.5C 65.5,121.167 65.5,115.833 65.5,110.5C 65.5,107.5 65.5,104.5 65.5,101.5C 66.8333,101.5 68.1667,101.5 69.5,101.5C 69.5,100.167 69.5,98.8333 69.5,97.5C 69.2322,95.901 69.5655,94.5676 70.5,93.5 Z"/></g>
<g><path style="opacity:1" fill="#92cbe5" d="M 69.5,97.5 C 69.5,98.8333 69.5,100.167 69.5,101.5C 68.1667,101.5 66.8333,101.5 65.5,101.5C 65.5,100.167 65.5,98.8333 65.5,97.5C 66.8333,97.5 68.1667,97.5 69.5,97.5 Z"/></g>
<g><path style="opacity:1" fill="#67d484" d="M 136.5,85.5 C 140.833,85.5 145.167,85.5 149.5,85.5C 149.5,86.8333 149.5,88.1667 149.5,89.5C 150.833,89.5 152.167,89.5 153.5,89.5C 154.833,89.5 156.167,89.5 157.5,89.5C 157.5,90.8333 157.5,92.1667 157.5,93.5C 158.833,93.5 160.167,93.5 161.5,93.5C 161.5,96.1667 161.5,98.8333 161.5,101.5C 162.833,101.5 164.167,101.5 165.5,101.5C 165.5,107.167 165.5,112.833 165.5,118.5C 164.167,118.5 162.833,118.5 161.5,118.5C 161.5,117.167 161.5,115.833 161.5,114.5C 160.167,114.5 158.833,114.5 157.5,114.5C 156.167,114.5 154.833,114.5 153.5,114.5C 153.5,113.167 153.5,111.833 153.5,110.5C 153.5,110.167 153.5,109.833 153.5,109.5C 153.5,108.167 153.5,106.833 153.5,105.5C 150.833,105.5 148.167,105.5 145.5,105.5C 145.5,104.167 145.5,102.833 145.5,101.5C 146.833,101.5 148.167,101.5 149.5,101.5C 149.5,100.167 149.5,98.8333 149.5,97.5C 148.167,97.5 146.833,97.5 145.5,97.5C 145.5,96.1667 145.5,94.8333 145.5,93.5C 144.167,93.5 142.833,93.5 141.5,93.5C 141.5,92.1667 141.5,90.8333 141.5,89.5C 139.833,89.5 138.167,89.5 136.5,89.5C 136.5,88.1667 136.5,86.8333 136.5,85.5 Z"/></g>
<g><path style="opacity:1" fill="#4bc784" d="M 136.5,85.5 C 136.5,86.8333 136.5,88.1667 136.5,89.5C 138.167,89.5 139.833,89.5 141.5,89.5C 141.5,90.8333 141.5,92.1667 141.5,93.5C 142.833,93.5 144.167,93.5 145.5,93.5C 145.5,94.8333 145.5,96.1667 145.5,97.5C 146.833,97.5 148.167,97.5 149.5,97.5C 149.5,98.8333 149.5,100.167 149.5,101.5C 148.167,101.5 146.833,101.5 145.5,101.5C 145.5,102.833 145.5,104.167 145.5,105.5C 142.5,105.5 139.5,105.5 136.5,105.5C 136.5,104.167 136.5,102.833 136.5,101.5C 132.5,101.5 128.5,101.5 124.5,101.5C 124.5,102.833 124.5,104.167 124.5,105.5C 120.167,105.5 115.833,105.5 111.5,105.5C 110.167,105.5 108.833,105.5 107.5,105.5C 107.5,104.167 107.5,102.833 107.5,101.5C 106.167,101.5 104.833,101.5 103.5,101.5C 103.5,98.8333 103.5,96.1667 103.5,93.5C 104.833,93.5 106.167,93.5 107.5,93.5C 108.833,93.5 110.167,93.5 111.5,93.5C 111.5,94.8333 111.5,96.1667 111.5,97.5C 114.5,97.5 117.5,97.5 120.5,97.5C 120.5,96.1667 120.5,94.8333 120.5,93.5C 121.833,93.5 123.167,93.5 124.5,93.5C 124.5,92.1667 124.5,90.8333 124.5,89.5C 125.833,89.5 127.167,89.5 128.5,89.5C 129.833,89.5 131.167,89.5 132.5,89.5C 132.5,88.1667 132.5,86.8333 132.5,85.5C 133.833,85.5 135.167,85.5 136.5,85.5 Z"/></g>
<g><path style="opacity:1" fill="#72ceb2" d="M 136.5,105.5 C 132.5,105.5 128.5,105.5 124.5,105.5C 124.5,104.167 124.5,102.833 124.5,101.5C 128.5,101.5 132.5,101.5 136.5,101.5C 136.5,102.833 136.5,104.167 136.5,105.5 Z"/></g>
<g><path style="opacity:1" fill="#86d4c1" d="M 111.5,93.5 C 114.5,93.5 117.5,93.5 120.5,93.5C 120.5,94.8333 120.5,96.1667 120.5,97.5C 117.5,97.5 114.5,97.5 111.5,97.5C 111.5,96.1667 111.5,94.8333 111.5,93.5 Z"/></g>
<g><path style="opacity:1" fill="#2eacc0" d="M 74.5,93.5 C 75.8333,93.5 77.1667,93.5 78.5,93.5C 78.5,94.8333 78.5,96.1667 78.5,97.5C 77.1667,97.5 75.8333,97.5 74.5,97.5C 74.5,96.1667 74.5,94.8333 74.5,93.5 Z"/></g>
<g><path style="opacity:1" fill="#c1e7da" d="M 153.5,84.5 C 154.833,84.5 156.167,84.5 157.5,84.5C 157.5,85.8333 157.5,87.1667 157.5,88.5C 158.833,88.5 160.167,88.5 161.5,88.5C 161.5,90.1667 161.5,91.8333 161.5,93.5C 160.167,93.5 158.833,93.5 157.5,93.5C 157.5,92.1667 157.5,90.8333 157.5,89.5C 156.167,89.5 154.833,89.5 153.5,89.5C 153.5,87.8333 153.5,86.1667 153.5,84.5 Z"/></g>
<g><path style="opacity:1" fill="#97daca" d="M 124.5,89.5 C 124.5,90.8333 124.5,92.1667 124.5,93.5C 123.167,93.5 121.833,93.5 120.5,93.5C 120.5,92.1667 120.5,90.8333 120.5,89.5C 121.833,89.5 123.167,89.5 124.5,89.5 Z"/></g>
<g><path style="opacity:1" fill="#93d8ca" d="M 107.5,89.5 C 108.833,89.5 110.167,89.5 111.5,89.5C 111.5,90.8333 111.5,92.1667 111.5,93.5C 110.167,93.5 108.833,93.5 107.5,93.5C 107.5,92.1667 107.5,90.8333 107.5,89.5 Z"/></g>
<g><path style="opacity:1" fill="#33b69d" d="M 74.5,89.5 C 75.8333,89.5 77.1667,89.5 78.5,89.5C 78.5,90.8333 78.5,92.1667 78.5,93.5C 77.1667,93.5 75.8333,93.5 74.5,93.5C 74.5,92.1667 74.5,90.8333 74.5,89.5 Z"/></g>
<g><path style="opacity:1" fill="#c1e1eb" d="M 74.5,89.5 C 74.5,90.8333 74.5,92.1667 74.5,93.5C 73.1667,93.5 71.8333,93.5 70.5,93.5C 70.5,92.1667 70.5,90.8333 70.5,89.5C 71.8333,89.5 73.1667,89.5 74.5,89.5 Z"/></g>
<g><path style="opacity:1" fill="#89d8b4" d="M 153.5,84.5 C 153.5,86.1667 153.5,87.8333 153.5,89.5C 152.167,89.5 150.833,89.5 149.5,89.5C 149.5,88.1667 149.5,86.8333 149.5,85.5C 145.167,85.5 140.833,85.5 136.5,85.5C 135.167,85.5 133.833,85.5 132.5,85.5C 132.5,86.8333 132.5,88.1667 132.5,89.5C 131.167,89.5 129.833,89.5 128.5,89.5C 128.5,87.8333 128.5,86.1667 128.5,84.5C 136.833,84.5 145.167,84.5 153.5,84.5 Z"/></g>
<g><path style="opacity:1" fill="#76cfb4" d="M 78.5,84.5 C 86.8333,84.5 95.1667,84.5 103.5,84.5C 103.5,86.1667 103.5,87.8333 103.5,89.5C 102.167,89.5 100.833,89.5 99.5,89.5C 99.5,88.1667 99.5,86.8333 99.5,85.5C 93.8333,85.5 88.1667,85.5 82.5,85.5C 82.5,86.8333 82.5,88.1667 82.5,89.5C 81.1667,89.5 79.8333,89.5 78.5,89.5C 78.5,87.8333 78.5,86.1667 78.5,84.5 Z"/></g>
<g><path style="opacity:1" fill="#c1e5e2" d="M 78.5,84.5 C 78.5,86.1667 78.5,87.8333 78.5,89.5C 77.1667,89.5 75.8333,89.5 74.5,89.5C 74.5,87.8333 74.5,86.1667 74.5,84.5C 75.8333,84.5 77.1667,84.5 78.5,84.5 Z"/></g>
</svg>
